<?xml version="1.0" encoding="UTF-8" standalone="no"?>
<!-- Created with Inkscape (http://www.inkscape.org/) -->

<svg
   width="211.78941mm"
   height="202.15225mm"
   viewBox="0 0 211.78941 202.15225"
   version="1.1"
   id="svg1"
   xmlns:inkscape="http://www.inkscape.org/namespaces/inkscape"
   xmlns:sodipodi="http://sodipodi.sourceforge.net/DTD/sodipodi-0.dtd"
   xmlns="http://www.w3.org/2000/svg"
   xmlns:svg="http://www.w3.org/2000/svg">
  <sodipodi:namedview
     id="namedview1"
     pagecolor="#ffffff"
     bordercolor="#000000"
     borderopacity="0.25"
     inkscape:showpageshadow="2"
     inkscape:pageopacity="0.0"
     inkscape:pagecheckerboard="0"
     inkscape:deskcolor="#d1d1d1"
     inkscape:document-units="mm">
    <inkscape:page
       x="0"
       y="3.5017315e-24"
       width="211.78941"
       height="202.15225"
       id="page2"
       margin="0"
       bleed="0" />
  </sodipodi:namedview>
  <defs
     id="defs1" />
  <g
     inkscape:label="icon"
     inkscape:groupmode="layer"
     id="layer1"
     transform="translate(0.6719351,-40.084929)">
    <g
       id="g6"
       inkscape:label="book"
       transform="matrix(0.26458333,0,0,0.26458333,-51.640561,40.086683)">
      <path
         id="path2"
         d="m 1444.92,8100.42 729.17,189.13 2272.43,-611.92 2272.42,611.92 729.18,-189.13 -3001.6,-811.44 -3001.6,811.44"
         style="fill:#040606;fill-opacity:1;fill-rule:nonzero;stroke:none"
         transform="matrix(0.13333333,0,0,-0.13333333,0,1142.4)" />
      <path
         id="path3"
         d="M 7448.26,8567.91 V 4115.75 l -3001.74,-1278 -3001.74,1278 v 4452.16 l 0.14,0.14 729.17,-189.14 2272.43,-861.16 2272.42,861.16 729.18,189.14 0.14,-0.14"
         style="fill:#ffffff;fill-opacity:1;fill-rule:nonzero;stroke:none"
         transform="matrix(0.13333333,0,0,-0.13333333,0,1142.4)" />
      <path
         id="path4"
         d="m 1569.5,4563.96 h 863.11 l 2013.91,-851.72 2013.91,851.72 h 863.11 L 4446.52,3275.68 1569.5,4563.96"
         style="fill:#c1c6c3;fill-opacity:1;fill-rule:nonzero;stroke:none"
         transform="matrix(0.13333333,0,0,-0.13333333,0,1142.4)"
         inkscape:label="indicator" />
      <path
         id="path5"
         d="m 7448.12,8568.05 -729.18,-189.14 364.52,-270.43 V 4563.96 L 4446.52,3338.04 1809.58,4563.96 v 3544.52 l 364.51,270.43 -729.17,189.14 -0.14,-0.14 V 4115.75 l 3001.74,-1278 3001.74,1278 v 4452.16 l -0.14,0.14"
         style="fill:#23272b;fill-opacity:1;fill-rule:nonzero;stroke:none"
         transform="matrix(0.13333333,0,0,-0.13333333,0,1142.4)" />
    </g>
  </g>
</svg>
